<?xml version="1.0" encoding="UTF-8"?>
<svg id="Layer_3" data-name="Layer 3" xmlns="http://www.w3.org/2000/svg" viewBox="0 0 500 500">
  <defs>
    <style>
      .cls-1 {
        fill: #ff2e8d;
        stroke-width: 0px;
      }
    </style>
  </defs>
  <polygon class="cls-1" points="124.75 89.29 124.75 71.43 106.89 71.43 106.89 89.29 89.03 89.29 89.03 107.14 106.89 107.14 106.89 125 124.75 125 124.75 107.14 124.75 89.29"/>
  <polygon class="cls-1" points="160.46 71.43 160.46 53.57 142.61 53.57 124.75 53.57 124.75 71.43 142.61 71.43 160.46 71.43"/>
  <polygon class="cls-1" points="142.61 89.29 142.61 107.14 160.46 107.14 178.32 107.14 178.32 89.29 178.32 71.43 160.46 71.43 160.46 89.29 142.61 89.29"/>
  <polygon class="cls-1" points="392.61 142.86 410.46 142.86 428.32 142.86 428.32 125 410.46 125 392.61 125 374.75 125 356.89 125 356.89 142.86 374.75 142.86 392.61 142.86"/>
  <polygon class="cls-1" points="464.03 464.29 464.03 446.43 464.03 428.57 446.18 428.57 446.18 410.71 446.18 392.86 428.32 392.86 428.32 375 428.32 357.14 428.32 339.29 410.46 339.29 410.46 321.43 410.46 303.57 410.46 285.71 410.46 267.86 428.32 267.86 428.32 250 428.32 232.14 428.32 214.29 446.18 214.29 446.18 196.43 446.18 178.57 446.18 160.71 446.18 142.86 428.32 142.86 428.32 160.71 428.32 178.57 428.32 196.43 410.46 196.43 410.46 214.29 392.61 214.29 374.75 214.29 374.75 196.43 356.89 196.43 356.89 178.57 356.89 160.71 356.89 142.86 339.03 142.86 339.03 160.71 339.03 178.57 321.18 178.57 303.32 178.57 285.46 178.57 267.61 178.57 249.75 178.57 231.89 178.57 231.89 196.43 214.03 196.43 196.18 196.43 178.32 196.43 160.46 196.43 142.61 196.43 142.61 214.29 124.75 214.29 106.89 214.29 106.89 196.43 89.03 196.43 89.03 178.57 89.03 160.71 71.18 160.71 71.18 142.86 71.18 125 53.32 125 53.32 107.14 71.18 107.14 71.18 89.29 71.18 71.43 71.18 53.57 89.03 53.57 106.89 53.57 106.89 35.71 124.75 35.71 124.75 17.86 142.61 17.86 160.46 17.86 178.32 17.86 178.32 35.71 196.18 35.71 214.03 35.71 214.03 53.57 214.03 71.43 231.89 71.43 231.89 89.29 214.03 89.29 214.03 107.14 196.18 107.14 196.18 125 178.32 125 178.32 142.86 160.46 142.86 160.46 125 142.61 125 124.75 125 124.75 142.86 142.61 142.86 142.61 160.71 160.46 160.71 178.32 160.71 196.18 160.71 196.18 142.86 214.03 142.86 214.03 125 231.89 125 231.89 107.14 249.75 107.14 249.75 89.29 249.75 71.43 249.75 53.57 249.75 35.71 231.89 35.71 231.89 17.86 214.03 17.86 196.18 17.86 196.18 0 178.32 0 160.46 0 142.61 0 124.75 0 106.89 0 106.89 17.86 89.03 17.86 89.03 35.71 71.18 35.71 53.32 35.71 53.32 53.57 53.32 71.43 35.46 71.43 35.46 89.29 35.46 107.14 35.46 125 35.46 142.86 35.46 160.71 53.32 160.71 53.32 178.57 71.18 178.57 71.18 196.43 71.18 214.29 89.03 214.29 89.03 232.14 106.89 232.14 106.89 250 106.89 267.86 89.03 267.86 89.03 285.71 89.03 303.57 89.03 321.43 89.03 339.29 89.03 357.14 106.89 357.14 106.89 375 106.89 392.86 89.03 392.86 89.03 410.71 71.18 410.71 71.18 428.57 71.18 446.43 53.32 446.43 53.32 464.29 53.32 482.14 71.18 482.14 71.18 500 89.03 500 106.89 500 124.75 500 124.75 482.14 106.89 482.14 89.03 482.14 89.03 464.29 106.89 464.29 106.89 446.43 124.75 446.43 124.75 428.57 142.61 428.57 142.61 410.71 160.46 410.71 160.46 392.86 160.46 375 160.46 357.14 178.32 357.14 196.18 357.14 196.18 375 196.18 392.86 214.03 392.86 214.03 410.71 214.03 428.57 214.03 446.43 231.89 446.43 231.89 464.29 231.89 482.14 231.89 500 249.75 500 267.61 500 285.46 500 285.46 482.14 267.61 482.14 249.75 482.14 249.75 464.29 249.75 446.43 249.75 428.57 249.75 410.71 249.75 392.86 249.75 375 249.75 357.14 231.89 357.14 231.89 339.29 231.89 321.43 214.03 321.43 214.03 303.57 231.89 303.57 249.75 303.57 267.61 303.57 267.61 321.43 285.46 321.43 303.32 321.43 321.18 321.43 321.18 339.29 321.18 357.14 321.18 375 321.18 392.86 321.18 410.71 303.32 410.71 303.32 428.57 303.32 446.43 303.32 464.29 303.32 482.14 321.18 482.14 321.18 500 339.03 500 356.89 500 356.89 482.14 339.03 482.14 339.03 464.29 321.18 464.29 321.18 446.43 339.03 446.43 339.03 428.57 339.03 410.71 356.89 410.71 356.89 392.86 356.89 375 356.89 357.14 356.89 339.29 374.75 339.29 374.75 357.14 392.61 357.14 392.61 375 392.61 392.86 410.46 392.86 410.46 410.71 410.46 428.57 428.32 428.57 428.32 446.43 446.18 446.43 446.18 464.29 446.18 482.14 464.03 482.14 481.89 482.14 481.89 464.29 464.03 464.29"/>
</svg>