<?xml version="1.0" encoding="UTF-8"?>
<svg id="Layer_2" data-name="Layer 2" xmlns="http://www.w3.org/2000/svg" viewBox="0 0 410.71 410.71">
  <defs>
    <style>
      .cls-1 {
        fill: #ff2e8d;
      }
    </style>
  </defs>
  <g id="Monkey_Pixels" data-name="Monkey Pixels">
    <g>
      <polygon class="cls-1" points="71.43 17.86 89.29 17.86 107.14 17.86 107.14 0 89.29 0 71.43 0 53.57 0 35.71 0 35.71 17.86 53.57 17.86 71.43 17.86"/>
      <polygon class="cls-1" points="35.71 35.71 35.71 17.86 17.86 17.86 17.86 35.71 17.86 53.57 17.86 71.43 35.71 71.43 35.71 53.57 35.71 35.71"/>
      <polygon class="cls-1" points="392.86 232.14 392.86 214.29 392.86 196.43 375 196.43 375 178.57 357.14 178.57 339.29 178.57 321.43 178.57 303.57 178.57 303.57 196.43 285.71 196.43 285.71 214.29 267.86 214.29 267.86 232.14 250 232.14 250 250 250 267.86 250 285.71 267.86 285.71 267.86 303.57 285.71 303.57 285.71 285.71 285.71 267.86 267.86 267.86 267.86 250 285.71 250 285.71 232.14 303.57 232.14 303.57 214.29 321.43 214.29 321.43 196.43 339.29 196.43 339.29 214.29 357.14 214.29 375 214.29 375 232.14 375 250 392.86 250 392.86 267.86 392.86 285.71 392.86 303.57 375 303.57 375 321.43 357.14 321.43 357.14 339.29 339.29 339.29 339.29 357.14 357.14 357.14 375 357.14 375 339.29 392.86 339.29 392.86 321.43 410.71 321.43 410.71 303.57 410.71 285.71 410.71 267.86 410.71 250 410.71 232.14 392.86 232.14"/>
      <polygon class="cls-1" points="303.57 321.43 303.57 339.29 321.43 339.29 321.43 321.43 339.29 321.43 339.29 303.57 321.43 303.57 303.57 303.57 285.71 303.57 285.71 321.43 303.57 321.43"/>
      <polygon class="cls-1" points="357.14 285.71 357.14 267.86 339.29 267.86 339.29 285.71 339.29 303.57 357.14 303.57 357.14 285.71"/>
      <polygon class="cls-1" points="321.43 250 303.57 250 303.57 267.86 303.57 285.71 321.43 285.71 321.43 267.86 339.29 267.86 339.29 250 321.43 250"/>
      <polygon class="cls-1" points="303.57 357.14 303.57 375 285.71 375 285.71 375 267.86 375 250 375 250 392.86 250 392.86 250 410.71 267.86 410.71 267.86 410.71 285.71 410.71 285.71 392.86 303.57 392.86 321.43 392.86 321.43 375 339.29 375 357.14 375 357.14 357.14 339.29 357.14 339.29 357.14 321.43 357.14 303.57 357.14"/>
      <rect class="cls-1" x="232.14" y="392.86" width="17.86" height="17.86"/>
      <polygon class="cls-1" points="232.14 357.14 214.29 357.14 214.29 339.29 214.29 321.43 214.29 303.57 214.29 294.64 232.14 294.64 232.14 276.79 232.14 258.93 232.14 241.07 232.14 223.21 232.14 205.36 232.14 187.5 214.29 187.5 214.29 178.57 214.29 160.71 214.29 142.86 196.43 142.86 196.43 125 196.43 107.14 178.57 107.14 178.57 89.29 160.71 89.29 160.71 71.43 142.86 71.43 142.86 53.57 142.86 35.71 125 35.71 125 17.86 107.14 17.86 107.14 35.71 107.14 53.57 107.14 71.43 89.29 71.43 89.29 89.29 71.43 89.29 53.57 89.29 53.57 107.14 71.43 107.14 71.43 125 89.29 125 89.29 142.86 71.43 142.86 71.43 160.71 71.43 178.57 53.57 178.57 53.57 196.43 53.57 214.29 53.57 232.14 35.71 232.14 17.86 232.14 17.86 250 0 250 0 267.86 0 285.71 0 303.57 0 321.43 0 339.29 17.86 339.29 17.86 357.14 35.71 357.14 35.71 375 53.57 375 53.57 392.86 35.71 392.86 17.86 392.86 0 392.86 0 410.71 17.86 410.71 35.71 410.71 53.57 410.71 71.43 410.71 89.29 410.71 107.14 410.71 125 410.71 142.86 410.71 160.71 410.71 178.57 410.71 178.57 392.86 196.43 392.86 196.43 375 196.43 357.14 196.43 357.14 196.43 375 196.43 392.86 214.29 392.86 214.29 392.86 232.14 392.86 250 392.86 250 375 232.14 375 232.14 357.14"/>
      <rect class="cls-1" x="35.71" y="71.43" width="17.86" height="17.86"/>
    </g>
  </g>
</svg>