<?xml version="1.0" encoding="UTF-8"?>
<svg id="Layer_2" data-name="Layer 2" xmlns="http://www.w3.org/2000/svg" viewBox="0 0 392.86 607.14">
  <defs>
    <style>
      .cls-1 {
        fill: #ff2e8d;
      }
    </style>
  </defs>
  <g id="Layer_2-2" data-name="Layer 2">
    <g>
      <polygon class="cls-1" points="196.43 71.43 214.28 71.43 232.14 71.43 232.14 53.57 214.28 53.57 196.43 53.57 178.57 53.57 160.71 53.57 160.71 71.43 178.57 71.43 196.43 71.43"/>
      <polygon class="cls-1" points="392.86 17.86 392.86 0 375 0 357.14 0 357.14 17.86 357.14 35.71 357.14 53.57 357.14 71.43 357.14 89.29 339.29 89.29 339.29 107.14 321.43 107.14 303.57 107.14 285.71 107.14 285.71 89.29 267.86 89.29 260.17 89.29 250 89.29 250 89.29 250 71.43 232.14 71.43 232.14 89.29 232.14 107.14 232.14 125 214.28 125 214.28 142.86 214.28 142.86 196.43 142.86 178.57 142.86 178.57 125 160.71 125 160.71 107.14 160.71 89.29 160.71 71.43 142.86 71.43 142.86 89.29 125 89.29 107.14 89.29 107.14 107.14 89.29 107.14 71.43 107.14 53.57 107.14 53.57 89.29 35.72 89.29 35.72 107.14 35.71 107.14 35.71 89.29 35.71 71.43 35.71 53.57 35.71 35.71 35.71 17.86 35.71 0 17.86 0 0 0 0 17.86 17.86 17.86 17.86 35.71 0 35.71 0 53.57 0 71.43 0 89.29 0 107.14 17.86 107.14 17.86 125 35.71 125 35.71 142.86 53.57 142.86 71.43 142.86 89.29 142.86 107.14 142.86 125 142.86 142.86 142.86 142.86 142.86 142.86 160.71 142.86 178.57 142.85 178.57 125 178.57 124.96 178.57 124.96 214.29 107.14 214.29 107.14 232.14 107.14 250 107.14 267.86 107.14 267.86 107.14 250 89.29 250 89.29 267.86 89.29 267.86 89.29 285.71 89.29 303.57 107.14 303.57 107.14 321.43 107.14 321.43 107.14 339.29 107.14 339.29 107.14 357.14 124.96 357.14 124.96 375 107.14 375 107.14 392.86 107.14 392.86 107.14 410.71 107.14 410.71 107.14 428.57 107.14 428.57 107.14 410.71 89.29 410.71 89.29 428.57 89.29 428.57 89.29 446.43 89.29 446.43 71.43 446.43 71.43 464.29 71.43 464.29 71.43 482.14 71.43 482.14 71.43 500 71.43 500 71.43 517.86 71.43 517.86 71.43 535.71 71.43 553.57 71.43 571.43 79.62 571.43 89.29 571.43 89.29 589.29 71.43 589.29 71.43 589.29 53.57 589.29 53.57 607.14 71.43 607.14 71.43 607.14 89.29 607.14 89.29 607.14 107.14 607.14 107.14 589.29 107.14 571.43 107.14 571.43 107.14 553.57 107.14 553.57 107.14 535.71 107.14 535.71 107.14 517.86 107.14 517.86 107.14 500 107.14 500 107.14 482.14 107.14 482.14 125 482.14 125 464.29 125 464.29 142.86 464.29 142.86 446.43 142.86 446.43 142.86 428.57 160.71 428.57 160.71 410.71 160.71 410.71 178.57 410.71 178.57 392.86 196.43 392.86 196.43 392.86 214.29 392.86 214.29 410.71 232.14 410.71 232.14 410.71 232.14 428.57 250 428.57 250 446.43 267.86 446.43 267.86 446.43 267.86 464.29 267.86 464.29 267.86 482.14 285.71 482.14 285.72 482.14 285.72 500 285.72 517.86 285.72 517.86 285.72 535.71 285.71 535.71 285.71 553.57 285.71 553.57 285.71 571.43 285.72 571.43 285.72 589.29 285.72 607.14 303.57 607.14 303.57 607.14 321.43 607.14 321.43 607.14 339.29 607.14 339.29 589.29 321.43 589.29 321.43 589.29 303.57 589.29 303.57 571.43 312.48 571.43 321.43 571.43 321.43 553.57 321.43 535.71 321.43 517.86 321.43 517.86 321.43 500 321.43 482.14 321.43 482.14 321.43 464.29 321.43 446.43 303.57 446.43 303.57 464.29 303.57 464.29 303.57 446.43 303.57 446.43 303.57 428.57 303.57 428.57 303.57 410.71 285.72 410.71 285.71 410.71 285.71 392.86 285.72 392.86 285.72 375 267.86 375 267.86 375 267.86 357.14 285.71 357.14 285.71 339.29 285.71 339.29 285.71 321.43 285.71 321.43 285.71 303.57 303.57 303.57 303.57 285.71 303.57 267.86 303.57 267.86 303.57 250 285.71 250 285.71 267.86 285.71 267.86 285.71 250 285.71 232.14 285.71 214.29 267.86 214.29 267.86 196.43 267.86 178.57 267.85 178.57 250 178.57 250 160.71 250 142.86 250 142.86 260.17 142.86 267.86 142.86 285.71 142.86 303.57 142.86 321.43 142.86 339.29 142.86 357.14 142.86 357.14 125 375 125 375 107.14 392.86 107.14 392.86 89.29 392.86 71.43 392.86 53.57 392.86 35.71 375 35.71 375 17.86 392.86 17.86"/>
    </g>
  </g>
</svg>